<svg xmlns="http://www.w3.org/2000/svg" id="export" class="canvas" preserveAspectRatio="xMidYMid meet" style="" width="114" height="834"><rect id="background" fill="#fff" pointer-events="all" width="114" height="834"/><g id="origin" transform="translate(5.1513000488281255, 5.1513000488281255) scale(1)"><g id="clusters" class="clusters"/><g id="edge-paths" class="edge-paths" style="pointer-events: none;"><defs><marker id="arrowhead" viewBox="0 0 10 10" refX="9" refY="5" markerUnits="strokeWidth" markerWidth="8" markerHeight="6" orient="auto" style="fill: rgb(0, 0, 0);"><path d="M 0 0 L 10 5 L 0 10 L 4 5 z" style="stroke-width: 1px;"/></marker><marker id="arrowhead-select" viewBox="0 0 10 10" refX="9" refY="5" markerUnits="strokeWidth" markerWidth="8" markerHeight="6" orient="auto" style="fill: rgba(220, 0, 0, 0.9);"><path d="M 0 0 L 10 5 L 0 10 L 4 5 z" style="stroke-width: 1px;"/></marker><marker id="arrowhead-hover" viewBox="0 0 10 10" refX="9" refY="5" markerUnits="strokeWidth" markerWidth="8" markerHeight="6" orient="auto" style="fill: rgba(220, 0, 0, 0.9);"><path d="M 0 0 L 10 5 L 0 10 L 4 5 z" style="stroke-width: 1px;"/></marker></defs><path id="edge-input_layer" class="edge-path" d="M51.51300048828125,20.375L51.51300048828125,22.041666666666668C51.51300048828125,23.708333333333332,51.51300048828125,27.041666666666668,51.51300048828125,30.375C51.51300048828125,33.708333333333336,51.51300048828125,37.041666666666664,51.51300048828125,40.375C51.51300048828125,43.708333333333336,51.51300048828125,47.041666666666664,51.51300048828125,50.375C51.51300048828125,53.708333333333336,51.51300048828125,57.041666666666664,51.51300048828125,58.708333333333336L51.51300048828125,60.375" style="stroke: rgb(0, 0, 0); stroke-width: 1px; fill: none; marker-end: url(&quot;#arrowhead&quot;);"/><path id="edge-conv2d" class="edge-path" d="M51.51300048828125,137.22500038146973L51.51300048828125,138.89166704813638C51.51300048828125,140.55833371480307,51.51300048828125,143.89166704813638,51.51300048828125,147.22500038146973C51.51300048828125,150.55833371480307,51.51300048828125,153.89166704813638,51.51300048828125,155.55833371480307L51.51300048828125,157.22500038146973" style="stroke: rgb(0, 0, 0); stroke-width: 1px; fill: none; marker-end: url(&quot;#arrowhead&quot;);"/><path id="edge-max_pooling2d" class="edge-path" d="M51.51300048828125,177.60000038146973L51.51300048828125,179.26666704813638C51.51300048828125,180.93333371480307,51.51300048828125,184.26666704813638,51.51300048828125,187.60000038146973C51.51300048828125,190.93333371480307,51.51300048828125,194.26666704813638,51.51300048828125,195.93333371480307L51.51300048828125,197.60000038146973" style="stroke: rgb(0, 0, 0); stroke-width: 1px; fill: none; marker-end: url(&quot;#arrowhead&quot;);"/><path id="edge-conv2d_1" class="edge-path" d="M51.51300048828125,274.45000076293945L51.51300048828125,276.11666742960614C51.51300048828125,277.78333409627277,51.51300048828125,281.11666742960614,51.51300048828125,284.45000076293945C51.51300048828125,287.78333409627277,51.51300048828125,291.11666742960614,51.51300048828125,292.78333409627277L51.51300048828125,294.45000076293945" style="stroke: rgb(0, 0, 0); stroke-width: 1px; fill: none; marker-end: url(&quot;#arrowhead&quot;);"/><path id="edge-max_pooling2d_1" class="edge-path" d="M51.51300048828125,314.82500076293945L51.51300048828125,316.49166742960614C51.51300048828125,318.15833409627277,51.51300048828125,321.49166742960614,51.51300048828125,324.82500076293945C51.51300048828125,328.15833409627277,51.51300048828125,331.49166742960614,51.51300048828125,333.15833409627277L51.51300048828125,334.82500076293945" style="stroke: rgb(0, 0, 0); stroke-width: 1px; fill: none; marker-end: url(&quot;#arrowhead&quot;);"/><path id="edge-conv2d_2" class="edge-path" d="M51.51300048828125,411.6750011444092L51.51300048828125,413.34166781107587C51.51300048828125,415.0083344777425,51.51300048828125,418.34166781107587,51.51300048828125,421.6750011444092C51.51300048828125,425.0083344777425,51.51300048828125,428.34166781107587,51.51300048828125,430.0083344777425L51.51300048828125,431.6750011444092" style="stroke: rgb(0, 0, 0); stroke-width: 1px; fill: none; marker-end: url(&quot;#arrowhead&quot;);"/><path id="edge-max_pooling2d_2" class="edge-path" d="M51.51300048828125,452.0500011444092L51.51300048828125,453.71666781107587C51.51300048828125,455.3833344777425,51.51300048828125,458.71666781107587,51.51300048828125,462.0500011444092C51.51300048828125,465.3833344777425,51.51300048828125,468.71666781107587,51.51300048828125,470.3833344777425L51.51300048828125,472.0500011444092" style="stroke: rgb(0, 0, 0); stroke-width: 1px; fill: none; marker-end: url(&quot;#arrowhead&quot;);"/><path id="edge-flatten" class="edge-path" d="M51.51300048828125,492.4250011444092L51.51300048828125,494.09166781107587C51.51300048828125,495.7583344777425,51.51300048828125,499.09166781107587,51.51300048828125,502.4250011444092C51.51300048828125,505.7583344777425,51.51300048828125,509.09166781107587,51.51300048828125,510.7583344777425L51.51300048828125,512.4250011444092" style="stroke: rgb(0, 0, 0); stroke-width: 1px; fill: none; marker-end: url(&quot;#arrowhead&quot;);"/><path id="edge-dense" class="edge-path" d="M51.51300048828125,589.2750015258789L51.51300048828125,590.9416681925455C51.51300048828125,592.6083348592123,51.51300048828125,595.9416681925455,51.51300048828125,599.2750015258789C51.51300048828125,602.6083348592123,51.51300048828125,605.9416681925455,51.51300048828125,607.6083348592123L51.51300048828125,609.2750015258789" style="stroke: rgb(0, 0, 0); stroke-width: 1px; fill: none; marker-end: url(&quot;#arrowhead&quot;);"/><path id="edge-dense_1" class="edge-path" d="M51.51300048828125,686.1250019073486L51.51300048828125,687.7916685740153C51.51300048828125,689.458335240682,51.51300048828125,692.7916685740153,51.51300048828125,696.1250019073486C51.51300048828125,699.458335240682,51.51300048828125,702.7916685740153,51.51300048828125,704.458335240682L51.51300048828125,706.1250019073486" style="stroke: rgb(0, 0, 0); stroke-width: 1px; fill: none; marker-end: url(&quot;#arrowhead&quot;);"/><path id="edge-dense_2" class="edge-path" d="M51.51300048828125,782.9750022888184L51.51300048828125,784.641668955485C51.51300048828125,786.3083356221517,51.51300048828125,789.641668955485,51.51300048828125,792.9750022888184C51.51300048828125,796.3083356221517,51.51300048828125,799.641668955485,51.51300048828125,801.3083356221517L51.51300048828125,802.9750022888184" style="stroke: rgb(0, 0, 0); stroke-width: 1px; fill: none; marker-end: url(&quot;#arrowhead&quot;);"/></g><g id="edge-labels" class="edge-labels"/><g id="nodes" class="nodes"><g id="input-name-input_layer" class="node graph-input" style="" transform="translate(16.43000030517578,0)"><g class="node-item graph-item-input" transform="translate(0,0)"><path d="M5,0h60.16600036621094a5,5 0 0 1 5,5v10.375a5,5 0 0 1 -5,5h-60.16600036621094a5,5 0 0 1 -5,-5v-10.375a5,5 0 0 1 5,-5z" style="stroke: rgb(0, 0, 0); fill: rgb(238, 238, 238); stroke-width: 0px;"/><text x="6" y="14.28499984741211" style="font-family: -apple-system, BlinkMacSystemFont, &quot;Segoe WPC&quot;, &quot;Segoe UI&quot;, &quot;Ubuntu&quot;, &quot;Droid Sans&quot;, sans-serif, &quot;PingFang SC&quot;; font-size: 11px; text-rendering: geometricprecision; user-select: none;">input_layer</text><title>float32</title></g><path class="node node-border" d="M5,0h60.16600036621094a5,5 0 0 1 5,5v10.375a5,5 0 0 1 -5,5h-60.16600036621094a5,5 0 0 1 -5,-5v-10.375a5,5 0 0 1 5,-5z" style="stroke: rgb(51, 51, 51); fill: none; stroke-width: 1px;"/></g><g id="node-name-conv2d" class="node graph-node" style="" transform="translate(2.5379981994628906,60.375)"><g class="node-item node-item-type node-item-type-layer" transform="translate(0,0)"><path d="M5,0h87.95000457763672a5,5 0 0 1 5,5v15.375a0,0 0 0 1 0,0h-97.95000457763672a0,0 0 0 1 0,0v-15.375a5,5 0 0 1 5,-5z" style="stroke: rgb(0, 0, 0); fill: rgb(51, 85, 136); stroke-width: 0px;"/><text x="6" y="14.28499984741211" style="font-family: -apple-system, BlinkMacSystemFont, &quot;Segoe WPC&quot;, &quot;Segoe UI&quot;, &quot;Ubuntu&quot;, &quot;Droid Sans&quot;, sans-serif, &quot;PingFang SC&quot;; font-size: 11px; text-rendering: geometricprecision; user-select: none; fill: rgb(255, 255, 255);">Conv2D</text><title>conv2d</title></g><g class="node-argument-list" transform="translate(0,20.375)"><path d="M0,0h97.95000457763672a0,0 0 0 1 0,0v36.10000038146973a0,0 0 0 1 0,0h-97.95000457763672a0,0 0 0 1 0,0v-36.10000038146973a0,0 0 0 1 0,0z" style="stroke: rgb(0, 0, 0); fill: rgb(255, 255, 255); stroke-width: 0px;"/><g class="node-argument"><rect rx="3" ry="3" x="3" y="3" width="91.95000457763672" height="15.050000190734863" style="fill: transparent;"/><text xml:space="preserve" x="6" y="14.440000534057617" style="font-family: -apple-system, BlinkMacSystemFont, &quot;Segoe WPC&quot;, &quot;Segoe UI&quot;, &quot;Ubuntu&quot;, &quot;Droid Sans&quot;, sans-serif, &quot;PingFang SC&quot;; font-size: 9px; font-weight: normal; text-rendering: geometricprecision; user-select: none;"><title>float32[3,3,3,64]</title><tspan style="font-weight: bold;">kernel</tspan><tspan>〈3×3×3×64〉</tspan></text></g><g class="node-argument"><rect rx="3" ry="3" x="3" y="18.050000190734863" width="91.95000457763672" height="15.050000190734863" style="fill: transparent;"/><text xml:space="preserve" x="6" y="29.49000072479248" style="font-family: -apple-system, BlinkMacSystemFont, &quot;Segoe WPC&quot;, &quot;Segoe UI&quot;, &quot;Ubuntu&quot;, &quot;Droid Sans&quot;, sans-serif, &quot;PingFang SC&quot;; font-size: 9px; font-weight: normal; text-rendering: geometricprecision; user-select: none;"><title>float32[64]</title><tspan style="font-weight: bold;">bias</tspan><tspan>〈64〉</tspan></text></g><line class="node" x1="0" x2="97.95000457763672" y1="0" y2="0" style="stroke: rgb(51, 51, 51); fill: none; stroke-width: 1px;"/></g><g class="node-item node-item-type node-item-type-activation" transform="translate(0,56.47500038146973)"><path d="M0,0h97.95000457763672a0,0 0 0 1 0,0v15.375a5,5 0 0 1 -5,5h-87.95000457763672a5,5 0 0 1 -5,-5v-15.375a0,0 0 0 1 0,0z" style="stroke: rgb(0, 0, 0); fill: rgb(112, 41, 33); stroke-width: 0px;"/><text x="6" y="14.28499984741211" style="font-family: -apple-system, BlinkMacSystemFont, &quot;Segoe WPC&quot;, &quot;Segoe UI&quot;, &quot;Ubuntu&quot;, &quot;Droid Sans&quot;, sans-serif, &quot;PingFang SC&quot;; font-size: 11px; text-rendering: geometricprecision; user-select: none; fill: rgb(255, 255, 255);">Activation</text></g><line class="node" x1="0" x2="97.95000457763672" y1="56.47500038146973" y2="56.47500038146973" style="stroke: rgb(51, 51, 51); fill: none; stroke-width: 1px;"/><path class="node node-border" d="M5,0h87.95000457763672a5,5 0 0 1 5,5v66.85000038146973a5,5 0 0 1 -5,5h-87.95000457763672a5,5 0 0 1 -5,-5v-66.85000038146973a5,5 0 0 1 5,-5z" style="stroke: rgb(51, 51, 51); fill: none; stroke-width: 1px;"/></g><g id="node-name-max_pooling2d" class="node graph-node" style="" transform="translate(8.069999694824219,157.22500038146973)"><g class="node-item node-item-type node-item-type-pool" transform="translate(0,0)"><path d="M5,0h76.88600158691406a5,5 0 0 1 5,5v10.375a5,5 0 0 1 -5,5h-76.88600158691406a5,5 0 0 1 -5,-5v-10.375a5,5 0 0 1 5,-5z" style="stroke: rgb(0, 0, 0); fill: rgb(51, 85, 51); stroke-width: 0px;"/><text x="6" y="14.28499984741211" style="font-family: -apple-system, BlinkMacSystemFont, &quot;Segoe WPC&quot;, &quot;Segoe UI&quot;, &quot;Ubuntu&quot;, &quot;Droid Sans&quot;, sans-serif, &quot;PingFang SC&quot;; font-size: 11px; text-rendering: geometricprecision; user-select: none; fill: rgb(255, 255, 255);">MaxPooling2D</text><title>max_pooling2d</title></g><path class="node node-border" d="M5,0h76.88600158691406a5,5 0 0 1 5,5v10.375a5,5 0 0 1 -5,5h-76.88600158691406a5,5 0 0 1 -5,-5v-10.375a5,5 0 0 1 5,-5z" style="stroke: rgb(51, 51, 51); fill: none; stroke-width: 1px;"/></g><g id="node-name-conv2d_1" class="node graph-node" style="" transform="translate(0,197.60000038146973)"><g class="node-item node-item-type node-item-type-layer" transform="translate(0,0)"><path d="M5,0h93.0260009765625a5,5 0 0 1 5,5v15.375a0,0 0 0 1 0,0h-103.0260009765625a0,0 0 0 1 0,0v-15.375a5,5 0 0 1 5,-5z" style="stroke: rgb(0, 0, 0); fill: rgb(51, 85, 136); stroke-width: 0px;"/><text x="6" y="14.28499984741211" style="font-family: -apple-system, BlinkMacSystemFont, &quot;Segoe WPC&quot;, &quot;Segoe UI&quot;, &quot;Ubuntu&quot;, &quot;Droid Sans&quot;, sans-serif, &quot;PingFang SC&quot;; font-size: 11px; text-rendering: geometricprecision; user-select: none; fill: rgb(255, 255, 255);">Conv2D</text><title>conv2d_1</title></g><g class="node-argument-list" transform="translate(0,20.375)"><path d="M0,0h103.0260009765625a0,0 0 0 1 0,0v36.10000038146973a0,0 0 0 1 0,0h-103.0260009765625a0,0 0 0 1 0,0v-36.10000038146973a0,0 0 0 1 0,0z" style="stroke: rgb(0, 0, 0); fill: rgb(255, 255, 255); stroke-width: 0px;"/><g class="node-argument"><rect rx="3" ry="3" x="3" y="3" width="97.0260009765625" height="15.050000190734863" style="fill: transparent;"/><text xml:space="preserve" x="6" y="14.440000534057617" style="font-family: -apple-system, BlinkMacSystemFont, &quot;Segoe WPC&quot;, &quot;Segoe UI&quot;, &quot;Ubuntu&quot;, &quot;Droid Sans&quot;, sans-serif, &quot;PingFang SC&quot;; font-size: 9px; font-weight: normal; text-rendering: geometricprecision; user-select: none;"><title>float32[3,3,64,32]</title><tspan style="font-weight: bold;">kernel</tspan><tspan>〈3×3×64×32〉</tspan></text></g><g class="node-argument"><rect rx="3" ry="3" x="3" y="18.050000190734863" width="97.0260009765625" height="15.050000190734863" style="fill: transparent;"/><text xml:space="preserve" x="6" y="29.49000072479248" style="font-family: -apple-system, BlinkMacSystemFont, &quot;Segoe WPC&quot;, &quot;Segoe UI&quot;, &quot;Ubuntu&quot;, &quot;Droid Sans&quot;, sans-serif, &quot;PingFang SC&quot;; font-size: 9px; font-weight: normal; text-rendering: geometricprecision; user-select: none;"><title>float32[32]</title><tspan style="font-weight: bold;">bias</tspan><tspan>〈32〉</tspan></text></g><line class="node" x1="0" x2="103.0260009765625" y1="0" y2="0" style="stroke: rgb(51, 51, 51); fill: none; stroke-width: 1px;"/></g><g class="node-item node-item-type node-item-type-activation" transform="translate(0,56.47500038146973)"><path d="M0,0h103.0260009765625a0,0 0 0 1 0,0v15.375a5,5 0 0 1 -5,5h-93.0260009765625a5,5 0 0 1 -5,-5v-15.375a0,0 0 0 1 0,0z" style="stroke: rgb(0, 0, 0); fill: rgb(112, 41, 33); stroke-width: 0px;"/><text x="6" y="14.28499984741211" style="font-family: -apple-system, BlinkMacSystemFont, &quot;Segoe WPC&quot;, &quot;Segoe UI&quot;, &quot;Ubuntu&quot;, &quot;Droid Sans&quot;, sans-serif, &quot;PingFang SC&quot;; font-size: 11px; text-rendering: geometricprecision; user-select: none; fill: rgb(255, 255, 255);">Activation</text></g><line class="node" x1="0" x2="103.0260009765625" y1="56.47500038146973" y2="56.47500038146973" style="stroke: rgb(51, 51, 51); fill: none; stroke-width: 1px;"/><path class="node node-border" d="M5,0h93.0260009765625a5,5 0 0 1 5,5v66.85000038146973a5,5 0 0 1 -5,5h-93.0260009765625a5,5 0 0 1 -5,-5v-66.85000038146973a5,5 0 0 1 5,-5z" style="stroke: rgb(51, 51, 51); fill: none; stroke-width: 1px;"/></g><g id="node-name-max_pooling2d_1" class="node graph-node" style="" transform="translate(8.069999694824219,294.45000076293945)"><g class="node-item node-item-type node-item-type-pool" transform="translate(0,0)"><path d="M5,0h76.88600158691406a5,5 0 0 1 5,5v10.375a5,5 0 0 1 -5,5h-76.88600158691406a5,5 0 0 1 -5,-5v-10.375a5,5 0 0 1 5,-5z" style="stroke: rgb(0, 0, 0); fill: rgb(51, 85, 51); stroke-width: 0px;"/><text x="6" y="14.28499984741211" style="font-family: -apple-system, BlinkMacSystemFont, &quot;Segoe WPC&quot;, &quot;Segoe UI&quot;, &quot;Ubuntu&quot;, &quot;Droid Sans&quot;, sans-serif, &quot;PingFang SC&quot;; font-size: 11px; text-rendering: geometricprecision; user-select: none; fill: rgb(255, 255, 255);">MaxPooling2D</text><title>max_pooling2d_1</title></g><path class="node node-border" d="M5,0h76.88600158691406a5,5 0 0 1 5,5v10.375a5,5 0 0 1 -5,5h-76.88600158691406a5,5 0 0 1 -5,-5v-10.375a5,5 0 0 1 5,-5z" style="stroke: rgb(51, 51, 51); fill: none; stroke-width: 1px;"/></g><g id="node-name-conv2d_2" class="node graph-node" style="" transform="translate(0,334.82500076293945)"><g class="node-item node-item-type node-item-type-layer" transform="translate(0,0)"><path d="M5,0h93.0260009765625a5,5 0 0 1 5,5v15.375a0,0 0 0 1 0,0h-103.0260009765625a0,0 0 0 1 0,0v-15.375a5,5 0 0 1 5,-5z" style="stroke: rgb(0, 0, 0); fill: rgb(51, 85, 136); stroke-width: 0px;"/><text x="6" y="14.28499984741211" style="font-family: -apple-system, BlinkMacSystemFont, &quot;Segoe WPC&quot;, &quot;Segoe UI&quot;, &quot;Ubuntu&quot;, &quot;Droid Sans&quot;, sans-serif, &quot;PingFang SC&quot;; font-size: 11px; text-rendering: geometricprecision; user-select: none; fill: rgb(255, 255, 255);">Conv2D</text><title>conv2d_2</title></g><g class="node-argument-list" transform="translate(0,20.375)"><path d="M0,0h103.0260009765625a0,0 0 0 1 0,0v36.10000038146973a0,0 0 0 1 0,0h-103.0260009765625a0,0 0 0 1 0,0v-36.10000038146973a0,0 0 0 1 0,0z" style="stroke: rgb(0, 0, 0); fill: rgb(255, 255, 255); stroke-width: 0px;"/><g class="node-argument"><rect rx="3" ry="3" x="3" y="3" width="97.0260009765625" height="15.050000190734863" style="fill: transparent;"/><text xml:space="preserve" x="6" y="14.440000534057617" style="font-family: -apple-system, BlinkMacSystemFont, &quot;Segoe WPC&quot;, &quot;Segoe UI&quot;, &quot;Ubuntu&quot;, &quot;Droid Sans&quot;, sans-serif, &quot;PingFang SC&quot;; font-size: 9px; font-weight: normal; text-rendering: geometricprecision; user-select: none;"><title>float32[3,3,32,32]</title><tspan style="font-weight: bold;">kernel</tspan><tspan>〈3×3×32×32〉</tspan></text></g><g class="node-argument"><rect rx="3" ry="3" x="3" y="18.050000190734863" width="97.0260009765625" height="15.050000190734863" style="fill: transparent;"/><text xml:space="preserve" x="6" y="29.49000072479248" style="font-family: -apple-system, BlinkMacSystemFont, &quot;Segoe WPC&quot;, &quot;Segoe UI&quot;, &quot;Ubuntu&quot;, &quot;Droid Sans&quot;, sans-serif, &quot;PingFang SC&quot;; font-size: 9px; font-weight: normal; text-rendering: geometricprecision; user-select: none;"><title>float32[32]</title><tspan style="font-weight: bold;">bias</tspan><tspan>〈32〉</tspan></text></g><line class="node" x1="0" x2="103.0260009765625" y1="0" y2="0" style="stroke: rgb(51, 51, 51); fill: none; stroke-width: 1px;"/></g><g class="node-item node-item-type node-item-type-activation" transform="translate(0,56.47500038146973)"><path d="M0,0h103.0260009765625a0,0 0 0 1 0,0v15.375a5,5 0 0 1 -5,5h-93.0260009765625a5,5 0 0 1 -5,-5v-15.375a0,0 0 0 1 0,0z" style="stroke: rgb(0, 0, 0); fill: rgb(112, 41, 33); stroke-width: 0px;"/><text x="6" y="14.28499984741211" style="font-family: -apple-system, BlinkMacSystemFont, &quot;Segoe WPC&quot;, &quot;Segoe UI&quot;, &quot;Ubuntu&quot;, &quot;Droid Sans&quot;, sans-serif, &quot;PingFang SC&quot;; font-size: 11px; text-rendering: geometricprecision; user-select: none; fill: rgb(255, 255, 255);">Activation</text></g><line class="node" x1="0" x2="103.0260009765625" y1="56.47500038146973" y2="56.47500038146973" style="stroke: rgb(51, 51, 51); fill: none; stroke-width: 1px;"/><path class="node node-border" d="M5,0h93.0260009765625a5,5 0 0 1 5,5v66.85000038146973a5,5 0 0 1 -5,5h-93.0260009765625a5,5 0 0 1 -5,-5v-66.85000038146973a5,5 0 0 1 5,-5z" style="stroke: rgb(51, 51, 51); fill: none; stroke-width: 1px;"/></g><g id="node-name-max_pooling2d_2" class="node graph-node" style="" transform="translate(8.069999694824219,431.6750011444092)"><g class="node-item node-item-type node-item-type-pool" transform="translate(0,0)"><path d="M5,0h76.88600158691406a5,5 0 0 1 5,5v10.375a5,5 0 0 1 -5,5h-76.88600158691406a5,5 0 0 1 -5,-5v-10.375a5,5 0 0 1 5,-5z" style="stroke: rgb(0, 0, 0); fill: rgb(51, 85, 51); stroke-width: 0px;"/><text x="6" y="14.28499984741211" style="font-family: -apple-system, BlinkMacSystemFont, &quot;Segoe WPC&quot;, &quot;Segoe UI&quot;, &quot;Ubuntu&quot;, &quot;Droid Sans&quot;, sans-serif, &quot;PingFang SC&quot;; font-size: 11px; text-rendering: geometricprecision; user-select: none; fill: rgb(255, 255, 255);">MaxPooling2D</text><title>max_pooling2d_2</title></g><path class="node node-border" d="M5,0h76.88600158691406a5,5 0 0 1 5,5v10.375a5,5 0 0 1 -5,5h-76.88600158691406a5,5 0 0 1 -5,-5v-10.375a5,5 0 0 1 5,-5z" style="stroke: rgb(51, 51, 51); fill: none; stroke-width: 1px;"/></g><g id="node-name-flatten" class="node graph-node" style="" transform="translate(26.5885009765625,472.0500011444092)"><g class="node-item node-item-type node-item-type-shape" transform="translate(0,0)"><path d="M5,0h39.8489990234375a5,5 0 0 1 5,5v10.375a5,5 0 0 1 -5,5h-39.8489990234375a5,5 0 0 1 -5,-5v-10.375a5,5 0 0 1 5,-5z" style="stroke: rgb(0, 0, 0); fill: rgb(108, 79, 71); stroke-width: 0px;"/><text x="6" y="14.28499984741211" style="font-family: -apple-system, BlinkMacSystemFont, &quot;Segoe WPC&quot;, &quot;Segoe UI&quot;, &quot;Ubuntu&quot;, &quot;Droid Sans&quot;, sans-serif, &quot;PingFang SC&quot;; font-size: 11px; text-rendering: geometricprecision; user-select: none; fill: rgb(255, 255, 255);">Flatten</text><title>flatten</title></g><path class="node node-border" d="M5,0h39.8489990234375a5,5 0 0 1 5,5v10.375a5,5 0 0 1 -5,5h-39.8489990234375a5,5 0 0 1 -5,-5v-10.375a5,5 0 0 1 5,-5z" style="stroke: rgb(51, 51, 51); fill: none; stroke-width: 1px;"/></g><g id="node-name-dense" class="node graph-node" style="" transform="translate(0,512.4250011444092)"><g class="node-item node-item-type node-item-type-layer" transform="translate(0,0)"><path d="M5,0h93.0260009765625a5,5 0 0 1 5,5v15.375a0,0 0 0 1 0,0h-103.0260009765625a0,0 0 0 1 0,0v-15.375a5,5 0 0 1 5,-5z" style="stroke: rgb(0, 0, 0); fill: rgb(51, 85, 136); stroke-width: 0px;"/><text x="6" y="14.28499984741211" style="font-family: -apple-system, BlinkMacSystemFont, &quot;Segoe WPC&quot;, &quot;Segoe UI&quot;, &quot;Ubuntu&quot;, &quot;Droid Sans&quot;, sans-serif, &quot;PingFang SC&quot;; font-size: 11px; text-rendering: geometricprecision; user-select: none; fill: rgb(255, 255, 255);">Dense</text><title>dense</title></g><g class="node-argument-list" transform="translate(0,20.375)"><path d="M0,0h103.0260009765625a0,0 0 0 1 0,0v36.10000038146973a0,0 0 0 1 0,0h-103.0260009765625a0,0 0 0 1 0,0v-36.10000038146973a0,0 0 0 1 0,0z" style="stroke: rgb(0, 0, 0); fill: rgb(255, 255, 255); stroke-width: 0px;"/><g class="node-argument"><rect rx="3" ry="3" x="3" y="3" width="97.0260009765625" height="15.050000190734863" style="fill: transparent;"/><text xml:space="preserve" x="6" y="14.440000534057617" style="font-family: -apple-system, BlinkMacSystemFont, &quot;Segoe WPC&quot;, &quot;Segoe UI&quot;, &quot;Ubuntu&quot;, &quot;Droid Sans&quot;, sans-serif, &quot;PingFang SC&quot;; font-size: 9px; font-weight: normal; text-rendering: geometricprecision; user-select: none;"><title>float32[28800,128]</title><tspan style="font-weight: bold;">kernel</tspan><tspan>〈28800×128〉</tspan></text></g><g class="node-argument"><rect rx="3" ry="3" x="3" y="18.050000190734863" width="97.0260009765625" height="15.050000190734863" style="fill: transparent;"/><text xml:space="preserve" x="6" y="29.49000072479248" style="font-family: -apple-system, BlinkMacSystemFont, &quot;Segoe WPC&quot;, &quot;Segoe UI&quot;, &quot;Ubuntu&quot;, &quot;Droid Sans&quot;, sans-serif, &quot;PingFang SC&quot;; font-size: 9px; font-weight: normal; text-rendering: geometricprecision; user-select: none;"><title>float32[128]</title><tspan style="font-weight: bold;">bias</tspan><tspan>〈128〉</tspan></text></g><line class="node" x1="0" x2="103.0260009765625" y1="0" y2="0" style="stroke: rgb(51, 51, 51); fill: none; stroke-width: 1px;"/></g><g class="node-item node-item-type node-item-type-activation" transform="translate(0,56.47500038146973)"><path d="M0,0h103.0260009765625a0,0 0 0 1 0,0v15.375a5,5 0 0 1 -5,5h-93.0260009765625a5,5 0 0 1 -5,-5v-15.375a0,0 0 0 1 0,0z" style="stroke: rgb(0, 0, 0); fill: rgb(112, 41, 33); stroke-width: 0px;"/><text x="6" y="14.28499984741211" style="font-family: -apple-system, BlinkMacSystemFont, &quot;Segoe WPC&quot;, &quot;Segoe UI&quot;, &quot;Ubuntu&quot;, &quot;Droid Sans&quot;, sans-serif, &quot;PingFang SC&quot;; font-size: 11px; text-rendering: geometricprecision; user-select: none; fill: rgb(255, 255, 255);">Activation</text></g><line class="node" x1="0" x2="103.0260009765625" y1="56.47500038146973" y2="56.47500038146973" style="stroke: rgb(51, 51, 51); fill: none; stroke-width: 1px;"/><path class="node node-border" d="M5,0h93.0260009765625a5,5 0 0 1 5,5v66.85000038146973a5,5 0 0 1 -5,5h-93.0260009765625a5,5 0 0 1 -5,-5v-66.85000038146973a5,5 0 0 1 5,-5z" style="stroke: rgb(51, 51, 51); fill: none; stroke-width: 1px;"/></g><g id="node-name-dense_1" class="node graph-node" style="" transform="translate(5.076000213623047,609.2750015258789)"><g class="node-item node-item-type node-item-type-layer" transform="translate(0,0)"><path d="M5,0h82.8740005493164a5,5 0 0 1 5,5v15.375a0,0 0 0 1 0,0h-92.8740005493164a0,0 0 0 1 0,0v-15.375a5,5 0 0 1 5,-5z" style="stroke: rgb(0, 0, 0); fill: rgb(51, 85, 136); stroke-width: 0px;"/><text x="6" y="14.28499984741211" style="font-family: -apple-system, BlinkMacSystemFont, &quot;Segoe WPC&quot;, &quot;Segoe UI&quot;, &quot;Ubuntu&quot;, &quot;Droid Sans&quot;, sans-serif, &quot;PingFang SC&quot;; font-size: 11px; text-rendering: geometricprecision; user-select: none; fill: rgb(255, 255, 255);">Dense</text><title>dense_1</title></g><g class="node-argument-list" transform="translate(0,20.375)"><path d="M0,0h92.8740005493164a0,0 0 0 1 0,0v36.10000038146973a0,0 0 0 1 0,0h-92.8740005493164a0,0 0 0 1 0,0v-36.10000038146973a0,0 0 0 1 0,0z" style="stroke: rgb(0, 0, 0); fill: rgb(255, 255, 255); stroke-width: 0px;"/><g class="node-argument"><rect rx="3" ry="3" x="3" y="3" width="86.8740005493164" height="15.050000190734863" style="fill: transparent;"/><text xml:space="preserve" x="6" y="14.440000534057617" style="font-family: -apple-system, BlinkMacSystemFont, &quot;Segoe WPC&quot;, &quot;Segoe UI&quot;, &quot;Ubuntu&quot;, &quot;Droid Sans&quot;, sans-serif, &quot;PingFang SC&quot;; font-size: 9px; font-weight: normal; text-rendering: geometricprecision; user-select: none;"><title>float32[128,128]</title><tspan style="font-weight: bold;">kernel</tspan><tspan>〈128×128〉</tspan></text></g><g class="node-argument"><rect rx="3" ry="3" x="3" y="18.050000190734863" width="86.8740005493164" height="15.050000190734863" style="fill: transparent;"/><text xml:space="preserve" x="6" y="29.49000072479248" style="font-family: -apple-system, BlinkMacSystemFont, &quot;Segoe WPC&quot;, &quot;Segoe UI&quot;, &quot;Ubuntu&quot;, &quot;Droid Sans&quot;, sans-serif, &quot;PingFang SC&quot;; font-size: 9px; font-weight: normal; text-rendering: geometricprecision; user-select: none;"><title>float32[128]</title><tspan style="font-weight: bold;">bias</tspan><tspan>〈128〉</tspan></text></g><line class="node" x1="0" x2="92.8740005493164" y1="0" y2="0" style="stroke: rgb(51, 51, 51); fill: none; stroke-width: 1px;"/></g><g class="node-item node-item-type node-item-type-activation" transform="translate(0,56.47500038146973)"><path d="M0,0h92.8740005493164a0,0 0 0 1 0,0v15.375a5,5 0 0 1 -5,5h-82.8740005493164a5,5 0 0 1 -5,-5v-15.375a0,0 0 0 1 0,0z" style="stroke: rgb(0, 0, 0); fill: rgb(112, 41, 33); stroke-width: 0px;"/><text x="6" y="14.28499984741211" style="font-family: -apple-system, BlinkMacSystemFont, &quot;Segoe WPC&quot;, &quot;Segoe UI&quot;, &quot;Ubuntu&quot;, &quot;Droid Sans&quot;, sans-serif, &quot;PingFang SC&quot;; font-size: 11px; text-rendering: geometricprecision; user-select: none; fill: rgb(255, 255, 255);">Activation</text></g><line class="node" x1="0" x2="92.8740005493164" y1="56.47500038146973" y2="56.47500038146973" style="stroke: rgb(51, 51, 51); fill: none; stroke-width: 1px;"/><path class="node node-border" d="M5,0h82.8740005493164a5,5 0 0 1 5,5v66.85000038146973a5,5 0 0 1 -5,5h-82.8740005493164a5,5 0 0 1 -5,-5v-66.85000038146973a5,5 0 0 1 5,-5z" style="stroke: rgb(51, 51, 51); fill: none; stroke-width: 1px;"/></g><g id="node-name-dense_2" class="node graph-node" style="" transform="translate(10.152000427246094,706.1250019073486)"><g class="node-item node-item-type node-item-type-layer" transform="translate(0,0)"><path d="M5,0h72.72200012207031a5,5 0 0 1 5,5v15.375a0,0 0 0 1 0,0h-82.72200012207031a0,0 0 0 1 0,0v-15.375a5,5 0 0 1 5,-5z" style="stroke: rgb(0, 0, 0); fill: rgb(51, 85, 136); stroke-width: 0px;"/><text x="6" y="14.28499984741211" style="font-family: -apple-system, BlinkMacSystemFont, &quot;Segoe WPC&quot;, &quot;Segoe UI&quot;, &quot;Ubuntu&quot;, &quot;Droid Sans&quot;, sans-serif, &quot;PingFang SC&quot;; font-size: 11px; text-rendering: geometricprecision; user-select: none; fill: rgb(255, 255, 255);">Dense</text><title>dense_2</title></g><g class="node-argument-list" transform="translate(0,20.375)"><path d="M0,0h82.72200012207031a0,0 0 0 1 0,0v36.10000038146973a0,0 0 0 1 0,0h-82.72200012207031a0,0 0 0 1 0,0v-36.10000038146973a0,0 0 0 1 0,0z" style="stroke: rgb(0, 0, 0); fill: rgb(255, 255, 255); stroke-width: 0px;"/><g class="node-argument"><rect rx="3" ry="3" x="3" y="3" width="76.72200012207031" height="15.050000190734863" style="fill: transparent;"/><text xml:space="preserve" x="6" y="14.440000534057617" style="font-family: -apple-system, BlinkMacSystemFont, &quot;Segoe WPC&quot;, &quot;Segoe UI&quot;, &quot;Ubuntu&quot;, &quot;Droid Sans&quot;, sans-serif, &quot;PingFang SC&quot;; font-size: 9px; font-weight: normal; text-rendering: geometricprecision; user-select: none;"><title>float32[128,1]</title><tspan style="font-weight: bold;">kernel</tspan><tspan>〈128×1〉</tspan></text></g><g class="node-argument"><rect rx="3" ry="3" x="3" y="18.050000190734863" width="76.72200012207031" height="15.050000190734863" style="fill: transparent;"/><text xml:space="preserve" x="6" y="29.49000072479248" style="font-family: -apple-system, BlinkMacSystemFont, &quot;Segoe WPC&quot;, &quot;Segoe UI&quot;, &quot;Ubuntu&quot;, &quot;Droid Sans&quot;, sans-serif, &quot;PingFang SC&quot;; font-size: 9px; font-weight: normal; text-rendering: geometricprecision; user-select: none;"><title>float32[1]</title><tspan style="font-weight: bold;">bias</tspan><tspan>〈1〉</tspan></text></g><line class="node" x1="0" x2="82.72200012207031" y1="0" y2="0" style="stroke: rgb(51, 51, 51); fill: none; stroke-width: 1px;"/></g><g class="node-item node-item-type node-item-type-activation" transform="translate(0,56.47500038146973)"><path d="M0,0h82.72200012207031a0,0 0 0 1 0,0v15.375a5,5 0 0 1 -5,5h-72.72200012207031a5,5 0 0 1 -5,-5v-15.375a0,0 0 0 1 0,0z" style="stroke: rgb(0, 0, 0); fill: rgb(112, 41, 33); stroke-width: 0px;"/><text x="6" y="14.28499984741211" style="font-family: -apple-system, BlinkMacSystemFont, &quot;Segoe WPC&quot;, &quot;Segoe UI&quot;, &quot;Ubuntu&quot;, &quot;Droid Sans&quot;, sans-serif, &quot;PingFang SC&quot;; font-size: 11px; text-rendering: geometricprecision; user-select: none; fill: rgb(255, 255, 255);">Activation</text></g><line class="node" x1="0" x2="82.72200012207031" y1="56.47500038146973" y2="56.47500038146973" style="stroke: rgb(51, 51, 51); fill: none; stroke-width: 1px;"/><path class="node node-border" d="M5,0h72.72200012207031a5,5 0 0 1 5,5v66.85000038146973a5,5 0 0 1 -5,5h-72.72200012207031a5,5 0 0 1 -5,-5v-66.85000038146973a5,5 0 0 1 5,-5z" style="stroke: rgb(51, 51, 51); fill: none; stroke-width: 1px;"/></g><g class="node" style="" transform="translate(23.706501007080078,802.9750022888184)"><g class="node-item graph-item-output" transform="translate(0,0)"><path d="M5,0h45.612998962402344a5,5 0 0 1 5,5v10.375a5,5 0 0 1 -5,5h-45.612998962402344a5,5 0 0 1 -5,-5v-10.375a5,5 0 0 1 5,-5z" style="stroke: rgb(0, 0, 0); fill: rgb(238, 238, 238); stroke-width: 0px;"/><text x="6" y="14.28499984741211" style="font-family: -apple-system, BlinkMacSystemFont, &quot;Segoe WPC&quot;, &quot;Segoe UI&quot;, &quot;Ubuntu&quot;, &quot;Droid Sans&quot;, sans-serif, &quot;PingFang SC&quot;; font-size: 11px; text-rendering: geometricprecision; user-select: none;">dense_2</text></g><path class="node node-border" d="M5,0h45.612998962402344a5,5 0 0 1 5,5v10.375a5,5 0 0 1 -5,5h-45.612998962402344a5,5 0 0 1 -5,-5v-10.375a5,5 0 0 1 5,-5z" style="stroke: rgb(51, 51, 51); fill: none; stroke-width: 1px;"/></g></g></g></svg>